<svg width="98" height="27" viewBox="0 0 98 27" fill="none" xmlns="http://www.w3.org/2000/svg">
<g clip-path="url(#clip0_813_3168)">
<path d="M0 13.5C0 20.9265 0.0185958 27 0.0433903 27C0.0805819 27 5.13245 26.0755 5.75231 25.9531L6.07464 25.8918V20.9327V15.9796H7.99621H9.91777V15.0735C9.91777 14.5776 9.93637 13.2857 9.96116 12.1959L9.99836 10.2245H8.0396H6.07464V8.05102V5.87755H8.33713C9.58305 5.87755 10.5996 5.86531 10.5996 5.84694C10.5996 5.77959 11.0955 0.551021 11.1265 0.287755L11.1637 1.42492e-07H5.57875H0V13.5Z" fill="white"/>
<path d="M92.7188 0.789884L87.7723 1.19397V13.3899V25.5858L87.9769 25.6164C88.1566 25.647 97.7335 26.3327 97.9256 26.3266C97.9814 26.3266 98 25.6776 98 23.296V20.2654H95.8925H93.785V18.0613V15.8572H95.5825H97.3801V13.2246V10.5919H95.5206H93.661V8.84703V7.10213L93.8035 7.07764C93.8779 7.05927 94.5102 7.03478 95.2106 7.01029C95.9111 6.99193 96.8223 6.96131 97.2438 6.93682L98 6.90009V3.63682V0.367435L97.8326 0.373557C97.7335 0.37968 95.4338 0.563353 92.7188 0.789884Z" fill="white"/>
<path d="M60.9633 1.63458C61.0253 2.24683 61.7319 11.4734 61.7196 11.4856C61.7134 11.4978 60.8022 9.28764 59.6926 6.5754C58.5893 3.86315 57.6595 1.61621 57.6347 1.57336C57.5975 1.50601 55.8867 1.81825 53.0787 2.40601L52.8121 2.46111V12.9856V23.5101H55.5705H58.3289L58.2979 23.0693C58.2359 22.2489 58.0066 15.4652 58.0314 15.1958C58.05 14.957 58.2359 15.3734 59.9963 19.5734C61.0625 22.1264 61.9675 24.2387 61.9923 24.2754C62.0295 24.3121 62.8911 24.257 64.354 24.1346C65.6247 24.0244 66.666 23.9264 66.666 23.9203C66.6722 23.9142 66.6412 19.4999 66.5979 14.1121C66.5545 8.72438 66.5173 3.63662 66.5173 2.79785L66.5111 1.2856H63.7217H60.9261L60.9633 1.63458Z" fill="white"/>
<path d="M17.3251 1.6592C13.6183 1.9041 11.579 4.40818 10.9343 9.48981C10.8042 10.5429 10.7484 14.1184 10.8414 15.3674C11.1513 19.4204 12.2608 22.0531 14.232 23.3939C15.292 24.1102 16.885 24.4959 18.4595 24.4041C20.2509 24.3061 21.472 23.8041 22.5691 22.7204C23.4679 21.8327 23.9576 21 24.4287 19.5796C25.0858 17.5959 25.3833 14.6327 25.2345 11.547C25.0672 8.0939 24.5403 5.94492 23.4555 4.29798C22.4204 2.73063 20.7839 1.7939 18.8748 1.67757C18.571 1.6592 18.2487 1.64083 18.1619 1.62859C18.0751 1.62247 17.7032 1.63471 17.3251 1.6592ZM18.1991 6.47145C18.6516 6.95512 18.8438 8.88369 18.8438 13.0102C18.8438 18.0919 18.5214 20.2041 17.8148 19.751C17.5111 19.549 17.2817 18.5633 17.1701 16.9286C17.0896 15.7347 17.0896 10.2674 17.1701 9.12247C17.2879 7.50614 17.4987 6.61226 17.8148 6.39798C17.9884 6.27553 18.0194 6.28165 18.1991 6.47145Z" fill="white"/>
<path d="M26.0341 12.7899V23.9388H28.8793H31.7182L31.7554 23.1613C31.7802 22.7266 31.8298 21.3184 31.867 20.0205C31.9042 18.7225 31.9538 17.5837 31.9786 17.4919C32.0096 17.3633 32.2761 18.1899 33.0943 20.9817C33.6894 22.996 34.1915 24.6674 34.2163 24.6919C34.2659 24.747 40.0802 24.2939 40.1422 24.2327C40.1607 24.2082 39.5161 22.2062 38.7103 19.7694L37.2474 15.349L37.5573 15.0797C38.5863 14.1919 39.4355 12.4776 39.6773 10.7817C39.7826 10.0409 39.7144 8.20414 39.5533 7.52455C38.9334 4.86128 37.2908 2.7919 35.1957 2.02047C34.2845 1.68986 34.3589 1.69598 30.0508 1.67149L26.0341 1.647V12.7899ZM32.4249 6.92455C32.865 7.13884 33.2245 7.68986 33.4167 8.44904C33.5468 8.9572 33.5282 10.5674 33.3857 11.0817C33.1191 12.049 32.648 12.6123 31.9414 12.8266L31.7988 12.8633V9.8021V6.73475L32.0034 6.77761C32.1088 6.79598 32.3009 6.86333 32.4249 6.92455Z" fill="white"/>
<path d="M39.8571 4.5613V7.40824H41.4377H43.0184V15.6123V23.8164H45.9937H48.969V16.1021V8.38783H50.5807H52.1923V5.5409V2.69396L52.0559 2.66947C51.9258 2.63886 40.105 1.70824 39.9377 1.71437C39.8757 1.71437 39.8571 2.32661 39.8571 4.5613Z" fill="white"/>
<path d="M67.8128 13.4388V24.551H70.8811H73.9494V13.4388V2.32654H70.8811H67.8128V13.4388Z" fill="white"/>
<path d="M80.9538 3.09789C77.5942 3.27544 74.7986 3.42238 74.7428 3.42238C74.6374 3.4285 74.6312 3.60605 74.6312 6.30605V9.18361H76.2119H77.7925V17.2346V25.2856H80.7988H83.8052V16.8979V8.51014H85.4788H87.1524V5.63258C87.1524 4.04687 87.1338 2.76116 87.109 2.76116C87.078 2.76728 84.3135 2.91422 80.9538 3.09789Z" fill="white"/>
</g>
<defs>
<clipPath id="clip0_813_3168">
<rect width="98" height="27" fill="white"/>
</clipPath>
</defs>
</svg>
