<svg width="546" height="632" viewBox="0 0 546 632" fill="none" xmlns="http://www.w3.org/2000/svg">
<path d="M236.245 210.667C245.236 210.667 247.945 206.774 247.945 196.859V134.541C247.945 124.626 245.236 120.028 236.245 120.028H223.142V210.667H236.245Z" fill="white"/>
<path d="M206.183 439.129L206.486 440.021L206.883 440.904H190.038L190.435 440.021L190.738 439.129L191.135 438.144L191.541 437.261L191.835 436.369L192.232 435.486L192.629 434.501L193.026 433.609L193.329 432.726L193.726 431.844L194.124 430.952L194.426 429.966L194.824 429.084L195.221 428.191L195.524 427.309L195.921 426.417L196.318 425.432L196.715 424.549L197.018 423.657L197.415 422.764L197.812 421.789L198.115 420.897L198.512 420.004L198.91 420.897L199.212 421.789L199.6 422.764L200.007 423.657L200.31 424.549L200.707 425.432L201.104 426.417L201.397 427.309L201.804 428.191L202.201 429.084L202.494 429.966L202.901 430.952L203.194 431.844L203.989 433.609L204.292 434.501L204.689 435.486L205.086 436.369L205.389 437.261L205.786 438.144L206.183 439.129Z" fill="white"/>
<path fill-rule="evenodd" clip-rule="evenodd" d="M0 49.5292C0 13.348 13.1967 0 48.9492 0H496.567C532.319 0 545.516 13.348 545.516 49.5292V486.121C545.516 490.222 545.516 518.546 517.439 533.51C489.362 548.473 297.746 625.556 297.746 625.556C286.469 630.789 281.016 632.149 272.758 631.987C263.488 631.987 260.012 630.757 247.657 625.556C247.657 625.556 56.1731 545.974 28.0865 533.51C2.34214 521.558 1.3175 507.936 0.69543 499.666C0.638836 498.914 0.585575 498.206 0.517334 497.547C0.159903 494.018 0 490.222 0 486.121V49.5292ZM173.585 186.016V223.156H124.128V297.524H173.585V334.588H86.7924V86.7451H173.585V123.866H124.128V186.016H173.585ZM407.066 302.485C416.685 302.485 421.584 297.965 421.584 288.217V235.487H458.76V289.956C458.76 320.242 443.363 334.739 412.343 334.739H393.44C362.43 334.739 347.17 320.242 347.17 289.956V136.343C347.17 106.058 362.43 86.9697 393.44 86.9697H411.989C443 86.9697 458.76 102.283 458.76 132.559V185.938L421.584 185.872V136.343C421.584 124.041 418.051 120.086 406.348 120.086H399.935C389.953 120.086 384.479 126.595 384.479 136.343V288.217C384.479 297.965 389.953 302.485 399.935 302.485H407.066ZM297.574 334.588H334.771V86.7451H297.574V334.588ZM185.984 334.588V86.7451H241.902C270.867 86.7451 285.175 101.967 285.175 132.772V198.638C285.175 229.432 270.867 244.654 241.902 244.654H223.142V334.588H185.984ZM464.761 450.848L464.865 449.863L464.959 448.775V446.415L464.865 445.337L464.761 444.352L464.363 442.382L464.165 441.499L463.871 440.616L463.569 439.724L463.172 438.943L462.67 438.051L462.169 437.271L461.573 436.388L460.977 435.598L460.277 434.91L459.577 434.12L457.988 432.745L457.184 432.253L456.39 431.658L455.595 431.175L453.798 430.19L452.805 429.697L451.802 429.297L450.809 428.805L449.712 428.424L448.814 428.126L447.924 427.829L446.922 427.541L446.023 427.244L444.037 426.649L443.034 426.454L441.937 426.156L440.944 425.868L439.847 425.664L438.75 425.376L436.555 424.781L435.562 424.586L434.664 424.289L433.765 424.093L432.97 423.796L432.176 423.601L430.975 423.211L429.878 422.811L428.884 422.421L428.09 421.928L427.182 421.436L426.491 420.748L426.085 420.162L425.593 419.075L425.489 417.802V417.598L425.593 416.622L425.99 415.73L426.586 414.847L427.485 414.057L428.184 413.667L428.979 413.276L429.878 413.081L430.88 412.877L431.968 412.682H434.162L435.061 412.784L436.063 412.877L437.057 412.979L439.043 413.369L440.045 413.564L441.039 413.862L442.041 414.159L443.129 414.457L443.933 414.847L444.831 415.144L445.626 415.535L446.525 415.925L447.319 416.324L448.218 416.715L449.012 417.207L449.911 417.598L450.715 418.192L451.509 418.685L452.398 419.177L453.202 419.763L453.798 418.982L454.299 418.192L454.895 417.402L455.491 416.622L456.087 415.73L456.588 414.949L457.184 414.159L457.79 413.369L458.281 412.589L458.877 411.799L459.483 411.009L459.984 410.228L460.57 409.336L461.176 408.556L461.772 407.766L462.273 406.976L462.869 406.186L461.28 405.015L460.476 404.42L459.681 403.928L458.783 403.342L457.988 402.85L456.191 401.865L455.397 401.465L454.498 400.982L453.495 400.582L452.606 400.192L451.708 399.802L450.809 399.504L449.807 399.105L448.918 398.909L448.019 398.612L447.016 398.324L446.127 398.129L445.125 397.924L444.132 397.729L443.233 397.534L442.24 397.339L441.143 397.237L440.149 397.042L439.043 396.949H438.05L435.855 396.744H431.571L429.584 396.949L428.582 397.042L427.589 397.144L426.69 397.339L425.697 397.534L424.789 397.729L423.9 397.924L423.105 398.129L422.197 398.417L421.204 398.816L420.211 399.105L419.312 399.504L418.414 399.997L417.515 400.387L416.617 400.88L415.822 401.372L415.028 401.958L414.224 402.552L413.533 403.045L412.729 403.732L412.039 404.522L411.339 405.21L410.639 405.991L409.447 407.57L408.946 408.453L408.454 409.336L408.047 410.228L407.253 411.994L407.054 412.877L406.751 413.769L406.354 415.535L406.25 416.52L406.156 417.402L406.052 418.387V420.655L406.25 422.718L406.354 423.703L406.553 424.586L406.751 425.571L407.054 426.352L407.347 427.244L407.65 428.024L408.047 428.712L408.549 429.595L409.04 430.385L409.542 431.072L410.138 431.76L410.743 432.448L411.433 433.135L412.133 433.823L412.833 434.418L413.628 434.91L414.432 435.496L415.321 435.988L416.125 436.481L417.118 436.973L418.017 437.466L419.01 437.856L420.012 438.256L421.005 438.646L422.103 439.036L423.9 439.631L424.789 439.929L425.791 440.124L426.69 440.421L427.683 440.709L428.676 440.904L429.679 441.202L430.672 441.397L431.769 441.694L432.772 441.889L433.86 442.187L434.862 442.382L435.855 442.679L436.754 442.874L437.652 443.172L438.447 443.367L439.147 443.562L440.339 444.055L441.341 444.454L442.24 444.845L443.034 445.235L443.829 445.83L444.529 446.415L445.03 447.103L445.427 448.088L445.531 449.268V449.463L445.427 450.448L445.125 451.331L444.727 452.121L444.132 452.809L443.337 453.403L442.637 453.794L441.833 454.091L440.944 454.286L440.045 454.481L439.043 454.676L437.946 454.779H435.761L434.664 454.676H433.67L432.668 454.481L431.571 454.388L430.577 454.184L429.584 453.989L428.582 453.794L427.683 453.496L426.69 453.208L425.697 452.911L424.789 452.52L423.9 452.223L423.001 451.824L421.204 451.043L420.41 450.55L419.511 450.16L418.716 449.658L417.818 449.073L417.014 448.58L416.125 447.995L415.321 447.4L414.432 446.805L413.628 446.22L413.032 447.01L412.332 447.697L411.736 448.487L411.036 449.268L410.44 449.956L409.844 450.746L409.144 451.535L408.549 452.223L407.849 453.004L407.253 453.701L406.553 454.481L405.957 455.271L405.361 455.959L404.661 456.749L404.065 457.529L403.365 458.217L402.769 459.007L403.564 459.695L404.264 460.289L405.058 460.875L405.853 461.47L406.657 462.055L407.451 462.65L409.04 463.635L409.948 464.127L410.743 464.611L411.632 465.103L412.54 465.503L413.429 465.986L414.328 466.376L415.226 466.776L416.219 467.166L417.118 467.464L418.111 467.761L419.01 468.151L420.012 468.449L421.005 468.737L421.904 468.941L422.897 469.229L423.9 469.434L426.889 470.019L427.882 470.121L428.884 470.316L429.972 470.409L431.968 470.614H433.065L434.058 470.707H438.248L440.339 470.512L441.341 470.409L443.233 470.214L444.236 470.019L445.125 469.824L446.023 469.629L447.016 469.434L447.924 469.136L449.911 468.542L450.904 468.151L451.906 467.761L452.805 467.268L453.694 466.869L454.602 466.376L455.397 465.791L456.191 465.308L456.986 464.713L457.686 464.127L458.48 463.43L459.776 462.157L460.372 461.47L460.873 460.68L461.469 459.89L462.472 458.319L462.869 457.436L463.266 456.647L463.663 455.764L463.966 454.779L464.165 453.896L464.458 452.911L464.666 451.926L464.761 450.848ZM337.846 469.527H395.959V453.301H356.886V441.109H391.57V425.868H356.886V414.159H395.458V397.924H337.846V469.527ZM303.89 469.527H323.129V397.924H302.698L302.197 398.714L301.705 399.597L301.1 400.378L300.598 401.27L300.107 402.05L299.605 402.943L299.009 403.723L298.508 404.606L298.007 405.396L297.515 406.176L296.919 407.059L296.418 407.849L295.916 408.732L295.415 409.522L294.829 410.396L293.826 411.975L293.325 412.849L292.833 413.639L292.237 414.522L291.736 415.311L291.234 416.185L290.733 416.975L290.137 417.858L289.645 418.638L289.144 419.428L288.643 420.311L288.047 421.101L287.546 421.984L287.054 422.764L286.552 423.657L285.957 424.437L285.455 425.32L284.954 426.11L284.462 425.32L283.961 424.437L283.355 423.657L282.864 422.764L282.362 421.984L281.87 421.101L281.369 420.311L280.764 419.428L280.272 418.638L279.771 417.858L279.279 416.975L278.777 416.185L278.172 415.311L277.68 414.522L277.179 413.639L276.687 412.849L276.186 411.975L275.581 411.185L275.089 410.396L274.587 409.522L274.086 408.732L273.49 407.849L272.989 407.059L272.497 406.176L271.996 405.396L271.494 404.606L270.899 403.723L270.407 402.943L269.905 402.05L269.404 401.27L268.903 400.378L268.307 399.597L267.806 398.714L267.314 397.924H246.883V469.527H265.819V427.383L266.415 428.173L266.917 429.065L267.512 429.846L268.014 430.738L268.61 431.528L269.101 432.411L269.707 433.2L270.199 434.083L270.804 434.873L271.305 435.756L271.901 436.546L272.402 437.438L272.989 438.228L273.49 439.111L274.086 439.901L274.587 440.783L275.193 441.573L275.789 442.456L276.28 443.246L276.876 444.138L277.378 444.928L277.983 445.811L278.475 446.601L279.08 447.484L279.572 448.274L280.168 449.156L280.669 449.946L281.265 450.829L281.766 451.628L282.362 452.511L282.864 453.301L283.459 454.184L283.961 454.974L284.557 455.857H284.954L285.455 455.076L286.051 454.184L286.552 453.394L287.148 452.604L287.65 451.721L288.245 450.931L288.737 450.141L289.239 449.259L289.844 448.469L290.336 447.688L290.941 446.889L291.433 446.006L292.029 445.216L292.53 444.436L293.031 443.543L293.627 442.754L294.129 441.964L294.725 441.081L295.216 440.291L295.822 439.501L296.323 438.618L296.815 437.828L297.42 437.048L297.912 436.156L298.508 435.366L299.009 434.576L299.605 433.795L300.107 432.903L300.598 432.113L301.204 431.323L301.705 430.44L302.301 429.651L302.802 428.87L303.398 427.978L303.89 427.188V469.527ZM218.243 469.527H238.777L237.983 467.761L237.586 466.869L237.283 465.884L236.886 465.01L236.488 464.127L236.091 463.235L235.287 461.47L234.899 460.485L234.493 459.602L234.19 458.71L233.802 457.827L233.395 456.944L232.998 456.061L232.601 455.076L232.204 454.184L231.4 452.418L231.107 451.535L230.709 450.643L230.303 449.658L228.714 446.127L228.316 445.235L228.014 444.25L226.822 441.601L226.415 440.709L226.018 439.826L225.621 438.841L225.223 437.958L224.921 437.076L224.533 436.183L224.126 435.301L223.729 434.418L223.332 433.433L222.934 432.55L222.13 430.775L221.837 429.892L221.44 429.009L221.033 428.126L220.645 427.141L219.841 425.376L219.444 424.484L219.047 423.601L218.744 422.718L218.347 421.733L217.95 420.85L217.552 419.958L217.146 419.075L216.351 417.31L215.954 416.324L215.651 415.442L215.263 414.549L214.857 413.667L214.46 412.784L214.062 411.892L213.665 410.916L213.258 410.024L212.861 409.141L212.568 408.258L212.171 407.375L211.764 406.483L211.376 405.498L210.969 404.615L210.175 402.85L209.778 401.958L209.475 401.075L209.078 400.09L208.283 398.324L207.876 397.432H189.442L189.044 398.324L188.647 399.207L188.24 400.09L187.947 401.075L187.55 401.958L187.153 402.85L186.746 403.732L186.358 404.615L185.952 405.498L185.554 406.483L185.148 407.375L184.854 408.258L184.06 410.024L183.663 410.916L183.265 411.892L182.859 412.784L182.064 414.549L181.761 415.442L181.364 416.324L180.967 417.31L179.775 419.958L179.378 420.85L178.971 421.733L178.678 422.718L177.883 424.484L177.477 425.376L176.682 427.141L176.285 428.126L175.888 429.009L175.585 429.892L174.79 431.658L174.393 432.55L173.986 433.433L173.589 434.418L172.795 436.183L172.492 437.076L171.697 438.841L171.3 439.826L170.903 440.709L170.506 441.601L170.108 442.484L169.702 443.367L169.409 444.25L169.011 445.235L168.605 446.127L167.016 449.658L166.618 450.643L166.316 451.535L165.124 454.184L164.717 455.076L164.32 456.061L163.932 456.944L163.525 457.827L163.223 458.71L162.825 459.602L162.428 460.485L162.031 461.47L161.236 463.235L160.432 465.01L160.13 465.884L159.742 466.869L158.938 468.644L158.541 469.527H178.678L179.075 468.644L179.378 467.761L179.775 466.869L180.172 465.884L180.475 465.01L180.872 464.127L181.27 463.235L181.563 462.352L181.969 461.47L182.367 460.587L182.66 459.695L183.057 458.71L183.464 457.827L183.767 456.944L184.154 456.061H212.766L213.164 456.944L213.466 457.827L213.864 458.71L214.261 459.695L214.554 460.587L214.961 461.47L215.358 462.352L215.651 463.235L216.455 465.01L216.748 465.884L217.146 466.869L217.552 467.761L217.855 468.644L218.243 469.527ZM149.659 460.977L150.463 460.382L151.163 459.797V427.829H118.266V442.187H132.823V451.136L132.028 451.628L131.319 452.028L130.43 452.418L129.626 452.809L128.727 453.208L127.838 453.403L126.845 453.701L125.843 453.896L124.849 454.091L121.652 454.388H119.363L118.266 454.286L117.273 454.184L116.271 453.989L115.277 453.794L114.275 453.496L113.282 453.208L112.383 452.809L111.484 452.418L110.595 452.028L109.791 451.535L108.997 451.043L108.202 450.448L107.398 449.863L106.708 449.268L106.103 448.58L105.412 447.893L104.807 447.205L104.211 446.415L103.719 445.634L103.208 444.845L102.716 443.962L102.319 443.07L101.912 442.085L101.619 441.304L101.326 440.421L101.127 439.529L100.721 437.763L100.522 435.886L100.427 434.91V432.643L100.617 430.682L100.825 429.595L101.023 428.712L101.222 427.736L101.525 426.751L101.912 425.868L102.215 424.976L102.622 424.093L103.123 423.303L103.615 422.421L104.116 421.631L104.608 420.943L105.213 420.162L105.904 419.465L106.509 418.778L107.2 418.192L107.9 417.598L108.6 417.012L110.189 416.027L110.993 415.535L111.891 415.144L112.78 414.745L113.679 414.457L114.577 414.159L115.476 413.964L116.469 413.769L117.368 413.667L118.37 413.564H120.461L123.648 413.862L124.641 414.057L125.644 414.261L126.542 414.457L127.432 414.745L128.33 415.042L129.134 415.339L129.929 415.73L130.733 416.129L131.622 416.622L132.416 417.105L133.22 417.598L134.015 418.09L134.809 418.685L135.613 419.177L136.408 419.865L137.202 420.45L137.798 419.67L138.498 418.982L139.094 418.192L139.794 417.402L140.39 416.622L140.995 415.925L141.686 415.144L142.291 414.354L142.981 413.564L143.587 412.877L144.183 412.096L144.883 411.306L145.478 410.619L146.074 409.829L146.774 409.039L147.37 408.258L148.07 407.57L148.666 406.781L147.871 406.186L147.067 405.498L146.273 404.913L145.478 404.318L144.684 403.825L143.889 403.24L142.981 402.747L142.187 402.255L141.298 401.762L140.494 401.27L139.595 400.88L138.706 400.387L137.798 399.997L136.909 399.597L136.01 399.207L135.112 398.909L134.317 398.612L133.419 398.417L132.52 398.129L131.622 397.924L130.733 397.729L129.825 397.534L127.838 397.144L126.94 397.042L125.843 396.846L124.849 396.744H123.847L122.75 396.651L121.652 396.549H117.368L116.375 396.651L115.372 396.744L113.386 396.949L112.383 397.144L111.39 397.237L110.397 397.432L109.498 397.729L108.496 397.924L107.597 398.222L106.708 398.417L105.809 398.816L104.807 399.105L104.012 399.402L103.019 399.894L102.121 400.285L101.222 400.684L98.5263 402.162L97.7412 402.655L96.9373 403.138L96.1428 403.732L95.3388 404.225L94.5443 404.81L93.8443 405.405L93.0498 406.093L92.3499 406.678L90.9595 408.063L90.3541 408.751L89.6637 409.438L89.0583 410.126L88.4624 410.916L87.8665 411.697L87.2707 412.486L86.268 414.057L85.7762 414.847L85.2749 415.637L84.7736 416.52L84.3763 417.402L83.5818 419.177L83.1846 420.06L82.7778 421.045L82.4846 421.928L82.182 422.913L81.8887 423.796L81.6901 424.781L81.3875 425.766L81.1888 426.649L81.0848 427.634L80.8861 428.61L80.6875 430.682V431.658L80.5929 432.745V435.988L80.7821 437.958L80.8861 438.943L80.9902 439.826L81.1888 440.811L81.2834 441.694L81.482 442.679L81.7847 443.562L81.9833 444.547L82.286 445.43L82.4846 446.322L82.8819 447.205L83.1846 447.995L84.3763 450.643L84.7736 451.535L85.2749 452.316L85.7762 453.208L86.268 453.989L86.7694 454.779L87.3652 455.569L87.8665 456.349L88.4624 457.037L89.0583 457.827L89.6637 458.514L90.3541 459.202L91.0541 459.89L91.754 460.485L92.4539 461.172L93.1444 461.767L93.8443 462.352L94.6483 462.947L95.4428 463.533L96.2373 464.127L97.0319 464.611L97.8358 465.103L98.7344 465.596L99.5289 466.088L100.427 466.581L101.326 466.971L103.123 467.761L104.116 468.151L105.005 468.449L105.904 468.839L106.803 469.136L107.805 469.331L108.694 469.629L109.697 469.824L110.595 470.019L112.582 470.409L114.577 470.614L117.661 470.902H121.955L123.052 470.809L124.045 470.707L125.143 470.614L126.145 470.512L127.233 470.409L128.236 470.316L129.229 470.121L130.231 469.917L131.12 469.722L132.123 469.527L133.022 469.229L134.015 468.941L136.71 468.049L137.599 467.659L138.602 467.268L139.501 466.869L140.494 466.478L141.392 465.986L142.291 465.596L143.18 465.103L144.079 464.611L144.977 464.127L145.772 463.635L146.576 463.142L147.37 462.548L148.165 462.055L148.969 461.47L149.659 460.977ZM272.776 594.823L371.967 557.647H173.585L272.776 594.823Z" fill="white"/>
</svg>
