<svg xmlns="http://www.w3.org/2000/svg" width="36" height="36" viewBox="0 0 42 42" fill="#fff" fill-rule="evenodd"><path d="M33.479 24.025c-.362 1.746-1.972 6.225-7.107 8.651l-2.062-2.319-3.48 3.496c-2.229-.006-6.874-.794-10.155-5.209 0 0 .652.206 1.137.215.569.01 1.187-.198 1.187-1.155v-9.439c.062-.784-.693-1.844-1.955-1.556-1.611.368-2.898 4.387-2.898 4.387-.004-4.855 2.491-8.161 4.425-9.795 2.403-2.032 4.746-2.73 6.526-3.011-1.758 1.003-2.747 2.637-2.747 4.008 0 2.202 1.329 1.941 1.723 1.616v12.739s.079.205.261.448c.265.351.751.782 1.538.782 1.331 0 3.058-1.519 3.058-1.519V16.05c0-1.05-.792-2.315-1.583-2.751 0 0 1.465-.264 2.599.607a9.56 9.56 0 0 1 .676-.744c2.635-2.59 5.123-3.324 7.194-3.697h.003s-3.769 2.959-3.769 6.928l.076 10.153c1.397 1.352 3.474-.598 5.352-2.52zM21 41c11.046 0 20-8.954 20-20S32.046 1 21 1 1 9.954 1 21s8.954 20 20 20zm0 1c11.598 0 21-9.402 21-21S32.598 0 21 0 0 9.402 0 21s9.402 21 21 21z"/></svg>